<?xml version="1.0" standalone="no"?>
<!DOCTYPE svg PUBLIC "-//W3C//DTD SVG 20010904//EN"
 "http://www.w3.org/TR/2001/REC-SVG-20010904/DTD/svg10.dtd">
<svg version="1.0" xmlns="http://www.w3.org/2000/svg"
 width="1600.000000pt" height="1600.000000pt" viewBox="0 0 1600.000000 1600.000000"
 preserveAspectRatio="xMidYMid meet">
<metadata>
Created by potrace 1.15, written by Peter Selinger 2001-2017
</metadata>
<g transform="translate(0.000000,1600.000000) scale(0.100000,-0.100000)"
fill="#000000" stroke="none">
<path d="M3155 13993 c-11 -2 -56 -11 -100 -19 -232 -45 -470 -171 -651 -346
-191 -185 -324 -425 -381 -688 -17 -82 -18 -279 -18 -4940 0 -4661 1 -4858 18
-4940 113 -522 515 -924 1037 -1037 82 -17 279 -18 4940 -18 4661 0 4858 1
4940 18 522 113 924 515 1037 1037 17 82 18 279 18 4940 0 4661 -1 4858 -18
4940 -112 518 -498 908 -1027 1036 -72 18 -273 19 -4925 20 -2667 1 -4859 0
-4870 -3z m5167 -4253 c242 -51 425 -145 574 -295 194 -194 288 -433 288 -735
1 -241 -52 -412 -181 -581 -64 -85 -201 -208 -287 -259 -42 -25 -76 -48 -76
-52 0 -4 28 -22 63 -39 148 -75 331 -235 412 -363 124 -195 173 -405 154 -658
-38 -510 -367 -860 -921 -979 -137 -30 -453 -37 -608 -15 -601 88 -973 450
-1021 994 -35 403 133 749 471 968 41 27 94 58 118 68 23 10 42 22 42 25 0 4
-26 21 -57 38 -190 106 -352 293 -431 498 -51 132 -70 303 -52 470 57 528 417
865 1000 939 19 2 121 3 225 1 145 -3 213 -9 287 -25z m3718 -234 l0 -264 -62
-6 c-35 -3 -106 -8 -158 -11 -298 -19 -581 -137 -773 -324 -137 -132 -226
-277 -291 -472 -37 -111 -84 -325 -73 -335 3 -4 31 16 61 43 144 132 333 221
544 258 107 19 313 19 418 1 399 -71 698 -346 832 -767 63 -197 76 -291 76
-539 0 -195 -2 -238 -22 -327 -90 -414 -314 -719 -652 -888 -278 -140 -670
-167 -1002 -70 -83 24 -251 112 -338 176 -287 214 -483 554 -555 964 -43 249
-41 794 5 1110 112 772 482 1312 1069 1559 246 104 490 152 784 155 l137 1 0
-264z m-7326 -1381 c149 -264 275 -479 280 -478 4 1 133 217 285 480 l277 478
362 3 362 2 -24 -37 c-102 -158 -869 -1400 -869 -1409 0 -8 525 -858 900
-1456 l23 -38 -357 0 -358 0 -295 505 c-162 278 -297 505 -300 505 -3 0 -133
-221 -290 -491 -157 -270 -289 -498 -295 -505 -8 -12 -71 -14 -366 -12 l-357
3 464 745 c422 679 462 746 450 765 -45 69 -876 1416 -876 1420 0 3 160 4 356
3 l356 -3 272 -480z"/>
<path d="M7898 9249 c-230 -30 -398 -200 -438 -441 -25 -159 -4 -335 57 -458
106 -217 350 -321 618 -265 152 32 267 118 337 251 50 95 70 184 72 324 1 135
-11 193 -65 306 -100 210 -320 317 -581 283z"/>
<path d="M7820 7534 c-161 -34 -315 -153 -384 -295 -58 -121 -71 -185 -71
-344 0 -156 18 -236 77 -347 96 -180 304 -288 558 -288 198 0 346 54 460 168
110 110 156 223 167 414 20 354 -148 610 -453 688 -92 24 -255 26 -354 4z"/>
<path d="M11228 7879 c-190 -28 -377 -145 -486 -306 -73 -107 -72 -105 -72
-290 0 -317 43 -518 152 -706 45 -77 141 -180 207 -221 166 -105 402 -114 583
-24 133 67 235 183 297 340 110 275 86 677 -55 918 -54 93 -155 190 -245 234
-120 59 -238 76 -381 55z"/>
</g>
</svg>
